<svg xmlns="http://www.w3.org/2000/svg" viewBox="0 0 24 24" fill="none" stroke="currentColor" stroke-width="2" stroke-linecap="round" stroke-linejoin="round">
  <!-- 手掌 -->
  <path d="M18 11V6a2 2 0 0 0-2-2v0a2 2 0 0 0-2 2v0"/>
  <path d="M14 10V4a2 2 0 0 0-2-2v0a2 2 0 0 0-2 2v2"/>
  <path d="M10 10.5V6a2 2 0 0 0-2-2v0a2 2 0 0 0-2 2v8"/>
  <path d="M18 8a2 2 0 1 1 4 0v6a8 8 0 0 1-8 8h-2c-2.8 0-4.5-.86-5.99-2.34l-3.6-3.6a2 2 0 0 1 2.83-2.82L7 15"/>
  <!-- 识别波纹效果 -->
  <circle cx="12" cy="12" r="10" opacity="0.2" stroke-dasharray="2 4"/>
  <circle cx="12" cy="12" r="12" opacity="0.1" stroke-dasharray="3 5"/>
</svg>
